<?xml version="1.0" standalone="no"?>
<!DOCTYPE svg PUBLIC "-//W3C//DTD SVG 20010904//EN"
 "http://www.w3.org/TR/2001/REC-SVG-20010904/DTD/svg10.dtd">
<svg version="1.0" xmlns="http://www.w3.org/2000/svg"
 width="945.000000pt" height="945.000000pt" viewBox="0 0 945.000000 945.000000"
 preserveAspectRatio="xMidYMid meet">
<metadata>
Created by potrace 1.14, written by Peter Selinger 2001-2017
</metadata>
<g transform="translate(0.000000,945.000000) scale(0.100000,-0.100000)"
fill="#000000" stroke="none">
<path d="M5498 9445 c-4 -4 -42 -7 -84 -6 -89 2 -411 -14 -594 -30 -128 -10
-260 -36 -327 -64 -20 -9 -100 -25 -178 -36 -312 -45 -520 -105 -845 -244
-301 -129 -629 -315 -824 -468 -231 -181 -440 -428 -658 -777 -201 -322 -337
-615 -456 -980 -40 -123 -55 -175 -112 -395 -15 -60 -38 -144 -49 -185 -34
-123 -69 -315 -91 -489 -11 -93 -31 -198 -45 -244 -35 -110 -48 -215 -40 -322
8 -120 50 -408 76 -531 12 -54 25 -133 29 -175 14 -134 46 -222 167 -464 140
-278 261 -477 347 -573 l48 -52 14 -218 c8 -119 23 -273 33 -342 11 -69 25
-168 31 -220 16 -130 67 -329 157 -615 106 -337 197 -515 427 -840 162 -230
365 -428 616 -601 459 -318 846 -464 1424 -539 87 -12 388 -6 506 9 312 40
609 145 780 276 127 97 309 266 364 337 190 249 448 689 588 1007 73 167 196
549 249 775 36 155 60 343 70 561 10 205 12 217 37 260 15 25 30 52 34 61 10
25 167 288 208 349 98 145 187 365 255 630 20 80 52 196 71 258 58 193 84 376
104 747 5 94 17 215 26 270 13 82 17 205 20 670 4 610 0 719 -42 970 -34 200
-64 326 -120 497 -129 394 -284 632 -641 982 -109 106 -111 109 -106 146 6 45
-7 69 -63 106 -249 170 -410 267 -504 304 -29 11 -76 22 -104 24 -28 2 -96 18
-151 36 -268 85 -624 159 -647 135z"/>
</g>
</svg>
